<svg width="200" height="49" viewBox="0 0 200 49" fill="none" xmlns="http://www.w3.org/2000/svg">
<g clip-path="url(#clip0_36_142)">
<path d="M54.3817 44.0141C51.0617 44.0141 48.5167 43.4461 46.7457 42.3101C45.0057 41.1421 44.1367 39.4371 44.1367 37.1961C44.1367 36.0601 44.5167 35.1281 45.2747 34.4021C46.0657 33.6451 47.0777 33.2661 48.3107 33.2661C49.0377 33.2981 49.5907 33.4861 49.9707 33.8341C50.3507 34.1501 50.5407 34.4501 50.5407 34.7341C50.5407 34.7651 50.3817 34.8761 50.0657 35.0651C49.7497 35.2551 49.4657 35.5391 49.2117 35.9171C48.9587 36.2971 48.8317 36.8171 48.8317 37.4801C48.8317 38.9641 49.2757 40.1161 50.1607 40.9371C51.0777 41.7261 52.4847 42.1201 54.3817 42.1201C55.6787 42.1201 56.8167 41.8681 57.7977 41.3631C58.7777 40.8581 59.5207 40.1951 60.0267 39.3741C60.5637 38.5221 60.8327 37.6381 60.8327 36.7221C60.8327 35.5861 60.5007 34.6081 59.8367 33.7871C59.1918 32.9555 58.3853 32.2629 57.4657 31.7511C56.5157 31.1831 55.2197 30.5351 53.5757 29.8091C51.6787 28.9571 50.1457 28.1841 48.9757 27.4891C47.8 26.7902 46.7819 25.8552 45.9857 24.7431C45.1647 23.5751 44.7537 22.1391 44.7537 20.4341C44.7537 17.6881 45.6857 15.6361 47.5517 14.2791C49.4497 12.9211 51.9317 12.2431 54.9987 12.2431C57.4017 12.2431 59.4887 12.7481 61.2597 13.7581C63.0627 14.7681 63.9637 16.2521 63.9637 18.2081C63.9637 19.3451 63.5677 20.2921 62.7777 21.0501C62.0187 21.7761 61.0227 22.1391 59.7897 22.1391C59.0617 22.1071 58.5087 21.9331 58.1297 21.6181C57.7497 21.2711 57.5597 20.9551 57.5597 20.6711C57.5597 20.6391 57.7657 20.5291 58.1767 20.3391C58.6197 20.1501 58.9987 19.8661 59.3147 19.4871C59.6627 19.1081 59.8367 18.5871 59.8367 17.9251C59.8367 16.7571 59.3787 15.8411 58.4617 15.1781C57.5757 14.5151 56.4377 14.1841 55.0457 14.1841C53.1177 14.1841 51.6467 14.6421 50.6357 15.5571C49.6547 16.4411 49.1647 17.5461 49.1647 18.8721C49.1647 19.9761 49.4647 20.9081 50.0657 21.6651C50.6657 22.3911 51.6307 23.1171 52.9587 23.8431C54.1103 24.4486 55.2809 25.0172 56.4687 25.5481C58.4927 26.4631 60.0897 27.3001 61.2597 28.0581C62.4644 28.8188 63.485 29.8377 64.2477 31.0411C65.0697 32.2711 65.4817 33.8031 65.4817 35.6331C65.4817 37.2121 64.9757 38.6481 63.9637 39.9431C62.9837 41.2051 61.6387 42.1991 59.9317 42.9251C58.2557 43.6511 56.4057 44.0151 54.3817 44.0151V44.0141ZM78.3947 43.6361C76.2447 43.6361 74.5367 42.9881 73.2717 41.6941C72.0067 40.4001 71.3747 38.6951 71.3747 36.5801V27.8201C71.3747 27.0001 71.3427 26.4001 71.2797 26.0211C71.2487 25.6431 71.0587 25.3111 70.7097 25.0271C70.3627 24.7431 69.7777 24.6011 68.9557 24.6011C68.5757 24.6011 68.2917 24.5541 68.1017 24.4591C67.9117 24.3331 67.8177 24.0641 67.8177 23.6541C67.8177 23.4641 67.8807 23.2911 68.0077 23.1341C68.1337 22.9441 68.3237 22.8341 68.5767 22.8021C70.5687 22.5171 72.2767 22.1071 73.6987 21.5701C74.1417 21.4131 74.5047 21.3181 74.7897 21.2861H74.9317C75.4377 21.2861 75.6917 21.5861 75.6917 22.1861V36.5331C75.6917 37.9851 76.1497 39.1061 77.0667 39.8951C77.9556 40.6425 79.0835 41.0456 80.2447 41.0311C81.7307 41.0311 82.9947 40.6681 84.0387 39.9421C85.0827 39.2161 85.7787 38.4901 86.1257 37.7641V27.8211C86.1257 27.0001 86.0947 26.4011 86.0317 26.0211C85.9997 25.6431 85.8097 25.3111 85.4617 25.0271C85.1137 24.7431 84.5287 24.6011 83.7067 24.6011C83.3267 24.6011 83.0427 24.5541 82.8537 24.4591C82.6637 24.3331 82.5687 24.0641 82.5687 23.6541C82.5687 23.4641 82.6317 23.2911 82.7587 23.1341C82.8847 22.9441 83.0747 22.8341 83.3277 22.8021C85.3197 22.5171 87.0277 22.1071 88.4507 21.5701C88.8927 21.4131 89.2567 21.3181 89.5407 21.2861H89.6837C90.1897 21.2861 90.4427 21.5861 90.4427 22.1861V38.5701C90.4427 40.4331 91.6917 41.3641 94.1897 41.3641C94.7267 41.3641 94.9957 41.6641 94.9957 42.2641C94.9957 42.7051 94.7267 42.9741 94.1897 43.0681L86.5527 43.5891C86.3317 43.5891 86.2047 43.5101 86.1727 43.3531C86.1427 43.2261 86.1257 42.9901 86.1257 42.6431V39.9901H86.0317C85.3057 40.672 84.5622 41.3349 83.8017 41.9781C83.2327 42.4201 82.4897 42.7991 81.5717 43.1151C80.6867 43.4621 79.6277 43.6351 78.3947 43.6351V43.6361ZM97.5907 43.2101C97.4802 43.2096 97.3713 43.1836 97.2724 43.1342C97.1736 43.0848 97.0874 43.0132 97.0207 42.9251C96.8947 42.7361 96.8307 42.5151 96.8307 42.2631C96.8627 41.8531 96.9577 41.6151 97.1157 41.5531C97.2747 41.4581 97.5587 41.4101 97.9697 41.4101C98.7917 41.4101 99.3767 41.2681 99.7247 40.9841C100.073 40.7001 100.263 40.3681 100.294 39.9901C100.358 39.6101 100.389 39.0111 100.389 38.1901V27.3471C100.389 26.5271 100.358 25.9271 100.294 25.5471C100.263 25.1691 100.073 24.8371 99.7247 24.5541C99.3767 24.2701 98.7917 24.1271 97.9697 24.1271C97.5897 24.1271 97.3057 24.0801 97.1167 23.9851C96.9267 23.8591 96.8317 23.5911 96.8317 23.1801C96.8317 22.9911 96.8947 22.8171 97.0217 22.6601C97.1477 22.4701 97.3377 22.3601 97.5907 22.3281C99.6457 22.0121 101.338 21.6021 102.666 21.0971C103.204 20.9391 103.567 20.8441 103.757 20.8131H103.899C104.405 20.8131 104.658 21.1131 104.658 21.7131V24.6481H104.8C105.907 23.5431 107.03 22.6751 108.168 22.0441C109.307 21.3811 110.334 21.0501 111.251 21.0501C112.295 21.0501 113.117 21.4441 113.718 22.2331C114.35 22.9911 114.666 23.8751 114.666 24.8851C114.666 25.7691 114.398 26.5581 113.86 27.2521C113.322 27.9471 112.579 28.2941 111.631 28.2941C111.218 28.3013 110.81 28.2036 110.445 28.0101C110.129 27.8201 109.955 27.6631 109.923 27.5371C109.955 27.4741 110.113 27.2841 110.397 26.9681C110.682 26.6211 110.824 26.2271 110.824 25.7851C110.824 25.2161 110.666 24.7591 110.35 24.4121C110.065 24.0641 109.67 23.8911 109.164 23.8911C108.627 23.8911 107.947 24.1591 107.125 24.6961C106.302 25.2011 105.496 25.8481 104.706 26.6371V38.1901C104.706 39.0111 104.737 39.6101 104.8 39.9901C104.864 40.3681 105.069 40.7001 105.417 40.9841C105.765 41.2681 106.35 41.4101 107.172 41.4101H107.457C107.71 41.4101 107.899 41.4581 108.026 41.5521C108.152 41.6471 108.231 41.8841 108.263 42.2621C108.263 42.5151 108.2 42.7361 108.073 42.9251C107.947 43.1151 107.757 43.2101 107.504 43.2101C105.845 43.12 104.185 43.0723 102.524 43.0671C101.101 43.0671 99.4567 43.1151 97.5907 43.2091V43.2101ZM171.258 43.6361C169.108 43.6361 167.195 43.1301 165.519 42.1201C163.843 41.0791 162.531 39.7211 161.582 38.0481C160.677 36.3928 160.205 34.5363 160.207 32.6501C160.207 30.2831 160.76 28.2311 161.867 26.4951C162.974 24.7271 164.381 23.3851 166.088 22.4701C167.796 21.5231 169.519 21.0501 171.258 21.0501C173.409 21.0501 175.322 21.5701 176.998 22.6121C178.642 23.5888 179.987 24.9971 180.887 26.6841C181.823 28.3112 182.314 30.1567 182.31 32.0341C182.31 34.4021 181.741 36.4701 180.603 38.2381C179.496 39.9741 178.089 41.3151 176.381 42.2621C174.674 43.1781 172.966 43.6361 171.258 43.6361V43.6361ZM171.258 41.8841C173.409 41.8841 174.974 40.9681 175.954 39.1371C176.966 37.3071 177.472 34.9391 177.472 32.0351C177.472 29.3201 176.95 27.1111 175.907 25.4051C174.895 23.6701 173.345 22.8021 171.258 22.8021C169.077 22.8021 167.496 23.7021 166.515 25.5011C165.535 27.3001 165.045 29.6511 165.045 32.5561C165.045 35.2701 165.551 37.5121 166.563 39.2791C167.575 41.0161 169.14 41.8841 171.258 41.8841V41.8841ZM194.262 43.8721C192.712 43.8721 191.384 43.3041 190.277 42.1681C189.171 41.0311 188.617 39.4061 188.617 37.2911V23.3701L185.866 23.4651C185.774 23.4658 185.683 23.4448 185.6 23.4036C185.518 23.3624 185.446 23.3022 185.392 23.2281C185.267 23.0468 185.201 22.832 185.202 22.6121C185.202 22.3281 185.25 22.0921 185.344 21.9021C185.471 21.6811 185.645 21.5551 185.866 21.5231C186.973 21.3031 187.827 20.9551 188.428 20.4821C189.06 19.9761 189.519 19.4401 189.803 18.8721C190.088 18.2721 190.436 17.3721 190.847 16.1721C191.005 15.7621 191.353 15.5571 191.89 15.5571C192.111 15.5571 192.333 15.6201 192.554 15.7471C192.775 15.8411 192.886 15.9991 192.886 16.2201L192.554 21.6181L198.104 21.2861H198.199C198.61 21.2861 198.815 21.5861 198.815 22.1861C198.815 22.5331 198.752 22.8651 198.625 23.1801C198.531 23.4651 198.404 23.6071 198.246 23.6071L192.934 23.4651V37.8591C192.934 38.9011 193.139 39.7691 193.55 40.4631C193.993 41.1581 194.704 41.5051 195.685 41.5051C196.665 41.5051 197.535 41.3311 198.293 40.9841C198.705 40.8261 198.957 40.7471 199.052 40.7471C199.274 40.7471 199.448 40.8421 199.574 41.0311C199.701 41.1891 199.827 41.4111 199.954 41.6941C199.987 41.7685 200.003 41.8495 200.001 41.9311C200.001 42.0571 199.906 42.1991 199.716 42.3571C198.799 42.9571 197.93 43.3521 197.108 43.5411C196.317 43.7611 195.368 43.8721 194.262 43.8721V43.8721ZM117.598 42.9251C117.724 43.1151 117.914 43.2091 118.167 43.2091C119.81 43.1189 121.454 43.0716 123.1 43.0671C125.219 43.0671 127.195 43.1151 129.029 43.2091C129.133 43.2115 129.236 43.1865 129.328 43.1367C129.419 43.0868 129.496 43.0139 129.551 42.9251C129.677 42.7351 129.74 42.5151 129.74 42.2621C129.709 41.8841 129.63 41.6471 129.503 41.5521C129.408 41.4581 129.219 41.4101 128.934 41.4101H128.649C127.606 41.4101 126.863 41.3311 126.42 41.1731C125.977 41.0161 125.677 40.7311 125.519 40.3211C125.361 39.8791 125.282 39.1691 125.282 38.1911V23.4631H130.31C130.42 23.4626 130.529 23.4367 130.627 23.3874C130.726 23.3382 130.812 23.2669 130.879 23.1791C131.037 22.9901 131.116 22.7691 131.116 22.5161C131.084 22.1381 130.989 21.9011 130.831 21.8061C130.705 21.6801 130.499 21.6161 130.215 21.6161H125.282V18.7761C125.282 17.2611 125.345 15.9351 125.471 14.7981C125.589 13.6566 125.962 12.5563 126.562 11.5781C127.163 10.6001 128.096 10.1111 129.361 10.1111C129.506 10.1111 129.647 10.1191 129.783 10.1361C129.765 9.60562 129.8 9.07469 129.887 8.5511C129.822 8.54931 129.757 8.54831 129.693 8.5481C126.91 8.6111 124.744 9.6681 123.195 11.7211C121.677 13.7411 120.918 16.3771 120.918 19.6281V21.6171H118.072C117.661 21.6171 117.376 21.6641 117.218 21.7591C117.06 21.8221 116.965 22.0751 116.934 22.5161C116.934 22.7691 116.997 22.9901 117.123 23.1791C117.282 23.3691 117.487 23.4641 117.74 23.4641H120.918V38.1901C120.918 39.0431 120.886 39.6581 120.823 40.0371C120.792 40.3841 120.602 40.7001 120.254 40.9841C119.906 41.2681 119.321 41.4101 118.499 41.4101C118.088 41.4101 117.803 41.4581 117.645 41.5521C117.519 41.6151 117.44 41.8521 117.408 42.2621C117.408 42.5151 117.471 42.7361 117.598 42.9251V42.9251Z" fill="#9C9C9C"/>
<path fill-rule="evenodd" clip-rule="evenodd" d="M142.952 9.865C142.951 10.5564 142.814 11.2409 142.549 11.8794C142.284 12.518 141.895 13.098 141.406 13.5865C140.917 14.0749 140.336 14.4622 139.697 14.7261C139.058 14.9901 138.373 15.1257 137.682 15.125C136.285 15.1261 134.946 14.5725 133.958 13.5862C132.969 12.5998 132.413 11.2613 132.412 9.865C132.412 9.17346 132.549 8.48879 132.814 7.85009C133.079 7.21139 133.468 6.63117 133.957 6.14255C134.446 5.65392 135.027 5.26647 135.666 5.00232C136.305 4.73816 136.99 4.60247 137.682 4.603C138.373 4.60234 139.058 4.73794 139.697 5.00205C140.337 5.26616 140.917 5.6536 141.407 6.14225C141.896 6.6309 142.285 7.21118 142.55 7.84994C142.815 8.48869 142.951 9.17342 142.952 9.865V9.865ZM137.682 12.495C138.027 12.4954 138.37 12.4277 138.689 12.2957C139.009 12.1637 139.299 11.9701 139.544 11.7259C139.789 11.4816 139.983 11.1916 140.116 10.8723C140.248 10.553 140.316 10.2107 140.317 9.865C140.317 9.51919 140.248 9.1768 140.116 8.85739C139.983 8.53798 139.789 8.24782 139.544 8.00348C139.3 7.75914 139.009 7.56542 138.69 7.43339C138.37 7.30136 138.028 7.2336 137.682 7.234C136.984 7.23373 136.314 7.51058 135.82 8.00371C135.326 8.49685 135.048 9.16594 135.047 9.864C135.048 10.5622 135.326 11.2316 135.82 11.7249C136.314 12.2183 136.983 12.4953 137.682 12.495V12.495ZM135.372 17.414V42.784C135.372 43.067 135.452 43.288 135.61 43.446C135.768 43.636 135.989 43.73 136.274 43.73C136.558 43.73 136.795 43.604 136.985 43.352C137.175 43.131 137.349 42.799 137.507 42.357C137.665 41.915 137.807 41.568 137.934 41.315H138.171C140.226 42.862 142.661 43.635 145.475 43.635C147.373 43.635 149.159 43.13 150.835 42.12C152.511 41.11 153.839 39.737 154.82 38C155.831 36.233 156.337 34.292 156.337 32.177C156.337 30.03 155.895 28.121 155.009 26.447C154.156 24.743 152.97 23.417 151.452 22.47C149.934 21.523 148.242 21.05 146.377 21.05C145.238 21.05 144.084 21.286 142.914 21.76C141.776 22.202 140.748 22.88 139.831 23.796H139.689V17.5C138.269 17.8685 136.775 17.8388 135.372 17.414V17.414ZM149.697 39.421C148.527 41.158 146.977 42.026 145.049 42.026C144.037 42.026 143.136 41.805 142.345 41.363C141.586 40.921 140.969 40.4 140.495 39.8C140.052 39.169 139.784 38.6 139.689 38.096V25.596C141.048 24.143 142.724 23.417 144.717 23.417C146.962 23.417 148.653 24.301 149.792 26.069C150.93 27.805 151.499 29.904 151.499 32.366C151.499 35.302 150.899 37.654 149.697 39.421V39.421ZM12.6997 0.366998C13.0352 0.127971 13.4368 -0.000488281 13.8487 -0.000488281C14.2606 -0.000488281 14.6623 0.127971 14.9977 0.366998C23.5577 6.471 27.4377 13.788 27.6827 24.287C27.7957 29.3 27.3127 33.89 25.8417 37.855C24.3317 41.823 21.6487 45.488 17.6987 48.584C17.4528 48.7751 17.1652 48.9055 16.8594 48.9646C16.5536 49.0237 16.2382 49.0098 15.9387 48.924C14.7287 48.577 14.5227 47.145 13.8487 46.253C13.1747 47.145 12.9707 48.576 11.7587 48.923C11.4594 49.0086 11.1442 49.0224 10.8386 48.9633C10.5329 48.9043 10.2456 48.774 9.99973 48.583C6.04973 45.488 3.36573 41.823 1.85673 37.855C0.386726 33.89 -0.0972739 29.3 0.0157261 24.287C0.259726 13.788 4.13973 6.47 12.6997 0.366998ZM17.1257 44.062C19.5977 41.792 21.0877 39.317 22.1397 36.47C23.4647 32.99 23.8467 29.144 23.7317 24.379C23.5417 16.192 21.6217 10.865 15.8087 5.919V20.387C18.0817 20.971 19.1017 23.197 19.1017 25.647C19.1017 28.099 18.0817 30.325 15.8087 30.909V42.746C15.8087 42.746 16.8647 43.719 17.1257 44.062ZM10.5377 44.062C8.06573 41.792 6.61073 39.317 5.55773 36.47C4.23373 32.99 3.85173 29.144 3.96773 24.379C4.15773 16.209 6.06673 10.859 11.8557 5.919V20.387C9.58273 20.971 8.56173 23.197 8.56173 25.647C8.56173 28.099 9.58173 30.325 11.8557 30.909V42.746C11.8557 42.746 10.7897 43.731 10.5377 44.062ZM13.8317 23.017C13.1336 23.0165 12.4638 23.2932 11.9697 23.7864C11.4756 24.2796 11.1975 24.9489 11.1967 25.647C11.1967 27.101 12.3767 28.278 13.8317 28.278C14.5299 28.2785 15.1996 28.0018 15.6938 27.5086C16.1879 27.0154 16.4659 26.3461 16.4667 25.648C16.4667 24.195 15.2867 23.018 13.8317 23.018V23.017Z" fill="#9C9C9C"/>
</g>
<defs>
<clipPath id="clip0_36_142">
<rect width="200" height="49" fill="white"/>
</clipPath>
</defs>
</svg>
