<svg width="32" height="32" viewBox="0 0 32 32" fill="none" xmlns="http://www.w3.org/2000/svg">
<path d="M22.666 22.6532C20.866 22.6532 19.7327 23.2132 18.7327 23.7199C17.866 24.1599 17.1593 24.5199 15.9993 24.5199C14.7993 24.5199 14.1327 24.1865 13.266 23.7199C12.266 23.2132 11.1727 22.6532 9.33268 22.6532C7.49268 22.6532 6.39935 23.2132 5.39935 23.7199C4.82602 24.0132 4.31935 24.2665 3.70602 24.4132C3.10602 24.5465 2.66602 25.0265 2.66602 25.6265V25.7599C2.66602 26.5599 3.41268 27.1332 4.18602 26.9732C5.17268 26.7732 5.91935 26.3999 6.59935 26.0532C7.46602 25.6132 8.15935 25.2532 9.33268 25.2532C10.506 25.2532 11.1993 25.5865 12.066 26.0532C13.066 26.5599 14.1593 27.1199 15.9993 27.1199C17.8393 27.1199 18.9327 26.5599 19.9327 26.0532C20.7993 25.6132 21.506 25.2532 22.666 25.2532C23.866 25.2532 24.5327 25.5865 25.3993 26.0532C26.0927 26.3999 26.8393 26.7865 27.8393 26.9865C28.0195 27.0217 28.2051 27.0169 28.3832 26.9724C28.5612 26.9279 28.7274 26.8449 28.8698 26.7292C29.0122 26.6134 29.1275 26.4678 29.2075 26.3026C29.2875 26.1375 29.3302 25.9567 29.3327 25.7732V25.6532C29.3327 25.0399 28.8793 24.5599 28.2793 24.4265C27.666 24.2932 27.1727 24.0399 26.5993 23.7332C25.5993 23.2132 24.466 22.6532 22.666 22.6532V22.6532ZM22.666 16.7199C20.866 16.7199 19.7327 17.2932 18.7327 17.7865C17.866 18.2132 17.1593 18.5865 15.9993 18.5865C14.7993 18.5865 14.1327 18.2532 13.266 17.7865C12.266 17.2799 11.1727 16.7199 9.33268 16.7199C7.49268 16.7199 6.39935 17.2932 5.39935 17.7865C4.82602 18.0665 4.31935 18.3332 3.69268 18.4799C3.10602 18.6132 2.66602 19.0932 2.66602 19.6932V19.8265C2.66609 20.0108 2.70725 20.1928 2.78648 20.3592C2.86572 20.5256 2.98105 20.6722 3.12408 20.7884C3.26711 20.9046 3.43425 20.9875 3.61333 21.031C3.79242 21.0745 3.97894 21.0775 4.15935 21.0399C5.15935 20.8399 5.90602 20.4532 6.59935 20.1199C7.46602 19.6532 8.13268 19.3199 9.33268 19.3199C10.5327 19.3199 11.1993 19.6532 12.066 20.1199C13.066 20.6265 14.1593 21.1865 15.9993 21.1865C17.8393 21.1865 18.9327 20.6132 19.9327 20.1199C20.7993 19.6532 21.466 19.3199 22.666 19.3199C23.866 19.3199 24.5327 19.6532 25.3993 20.1199C26.0927 20.4665 26.8393 20.8532 27.8393 21.0532C28.0206 21.0886 28.2074 21.0835 28.3864 21.0382C28.5654 20.993 28.7322 20.9088 28.8749 20.7916C29.0176 20.6744 29.1326 20.5271 29.2117 20.3603C29.2909 20.1934 29.3322 20.0112 29.3327 19.8265V19.7065C29.3327 19.0932 28.8793 18.6132 28.2793 18.4799C27.666 18.3465 27.1727 18.0932 26.5993 17.7865C25.5993 17.2799 24.466 16.7199 22.666 16.7199V16.7199ZM26.5993 5.94655C25.5993 5.43988 24.4927 4.87988 22.666 4.87988C20.8393 4.87988 19.7327 5.43988 18.7327 5.94655C17.866 6.37322 17.1593 6.74655 15.9993 6.74655C14.7993 6.74655 14.1327 6.41322 13.266 5.94655C12.266 5.45322 11.1727 4.87988 9.33268 4.87988C7.49268 4.87988 6.39935 5.43988 5.39935 5.94655C4.82602 6.23988 4.31935 6.49322 3.70602 6.63988C3.10602 6.77322 2.66602 7.25322 2.66602 7.85322V7.94655C2.66602 8.74655 3.38602 9.33322 4.15935 9.17322C5.15935 8.97322 5.90602 8.58655 6.59935 8.25322C7.46602 7.81322 8.15935 7.45322 9.33268 7.45322C10.506 7.45322 11.1993 7.78655 12.066 8.25322C13.066 8.75988 14.1593 9.31988 15.9993 9.31988C17.8393 9.31988 18.9327 8.74655 19.9327 8.25322C20.7993 7.82655 21.506 7.45322 22.666 7.45322C23.866 7.45322 24.5327 7.78655 25.3993 8.25322C26.0927 8.59988 26.8393 8.98655 27.8393 9.18655C28.0206 9.22191 28.2074 9.21679 28.3864 9.17155C28.5654 9.12632 28.7322 9.04209 28.8749 8.92489C29.0176 8.80769 29.1326 8.66042 29.2117 8.49359C29.2909 8.32677 29.3322 8.14452 29.3327 7.95988V7.83988C29.3327 7.22655 28.8793 6.74655 28.2793 6.61322C27.666 6.47988 27.1727 6.23988 26.5993 5.94655V5.94655ZM22.666 10.7865C20.866 10.7865 19.7327 11.3599 18.7327 11.8532C17.866 12.3199 17.1993 12.6532 15.9993 12.6532C14.7993 12.6532 14.1327 12.3199 13.266 11.8532C12.266 11.3465 11.1727 10.7865 9.33268 10.7865C7.49268 10.7865 6.39935 11.3599 5.39935 11.8532C4.82602 12.1599 4.33268 12.4132 3.71935 12.5465C3.11935 12.6799 2.66602 13.1599 2.66602 13.7732V13.8932C2.66609 14.0775 2.70725 14.2595 2.78648 14.4259C2.86572 14.5922 2.98105 14.7389 3.12408 14.8551C3.26711 14.9713 3.43425 15.0542 3.61333 15.0977C3.79242 15.1412 3.97894 15.1442 4.15935 15.1065C5.15935 14.9065 5.90602 14.5199 6.59935 14.1865C7.46602 13.7599 8.17268 13.3865 9.33268 13.3865C10.4927 13.3865 11.1993 13.7199 12.066 14.1865C13.066 14.6932 14.1593 15.2532 15.9993 15.2532C17.8393 15.2532 18.9327 14.6799 19.9327 14.1865C20.7993 13.7599 21.506 13.3865 22.666 13.3865C23.866 13.3865 24.5327 13.7199 25.3993 14.1865C26.0927 14.5332 26.8393 14.9199 27.8393 15.1199C28.0195 15.155 28.2051 15.1502 28.3832 15.1057C28.5612 15.0613 28.7274 14.9782 28.8698 14.8625C29.0122 14.7468 29.1275 14.6012 29.2075 14.436C29.2875 14.2708 29.3302 14.0901 29.3327 13.9065V13.7865C29.3327 13.1732 28.8793 12.6932 28.2793 12.5599C27.666 12.4265 27.1727 12.1732 26.5993 11.8665C25.5993 11.3465 24.466 10.7865 22.666 10.7865V10.7865Z" fill="url(#paint0_linear_36_110)"/>
<defs>
<linearGradient id="paint0_linear_36_110" x1="15.9993" y1="4.87988" x2="15.9993" y2="27.1199" gradientUnits="userSpaceOnUse">
<stop stop-color="#00E0FF"/>
<stop offset="1" stop-color="#0896B5"/>
</linearGradient>
</defs>
</svg>
