<svg width="20" height="16" viewBox="0 0 20 16" fill="none" xmlns="http://www.w3.org/2000/svg">
<path d="M16.9989 2.28522C16.9989 1.02861 16.099 0 14.9996 0H13.0004C12.4499 0 12 0.514304 12 1.14175C12 1.77092 12.4499 2.28522 13.0004 2.28522H14.9996V5.31448L11.5201 10.2861H8V5.71392C8 5.08475 7.55006 4.57045 7.00112 4.57045H4C3.47466 4.57022 2.95442 4.68833 2.46903 4.91802C1.98364 5.14772 1.54261 5.48449 1.17113 5.9091C0.79966 6.33371 0.50503 6.83783 0.304081 7.39265C0.103132 7.94748 -0.000196808 8.54212 2.81417e-07 9.14261V11.4278C2.81417e-07 12.057 0.449944 12.5713 1.00038 12.5713H1.99925C1.99925 14.4691 3.34008 16 4.99888 16C6.65917 16 7.9985 14.4691 7.9985 12.5713H11.5186C12.129 12.5713 12.6989 12.2507 13.0784 11.7141L16.5579 6.74253C16.8474 6.33108 16.9974 5.82706 16.9974 5.31448V2.28522H16.9989ZM5.00037 13.7148C4.73556 13.7134 4.48196 13.5925 4.29485 13.3783C4.10773 13.1641 4.00229 12.874 4.0015 12.5713H6.00075C6.00075 13.2005 5.55081 13.7148 5.00037 13.7148Z" fill="#5B5B5B"/>
<path d="M3.99989 1.14175H6.99951C7.54994 1.14175 7.99989 1.65606 7.99989 2.28522C7.99989 2.91267 7.54994 3.42698 7.00101 3.42698H3.99989C3.73507 3.42608 3.48131 3.30555 3.29392 3.09167C3.10652 2.8778 3.0007 2.58791 2.99951 2.28522C2.99951 1.65606 3.44946 1.14175 3.99989 1.14175ZM17.0003 9.1409C15.34 9.1409 14.0006 10.6735 14.0006 12.5696C14.0006 14.4674 15.34 15.9983 17.0003 15.9983C18.6606 15.9983 19.9999 14.4674 19.9999 12.5696C19.9999 10.6735 18.6606 9.1409 17.0003 9.1409ZM17.0003 13.7131C16.7352 13.7122 16.4812 13.5914 16.2938 13.3771C16.1063 13.1629 16.0007 12.8726 15.9999 12.5696C15.9999 11.9421 16.4498 11.4278 17.0003 11.4278C17.5507 11.4278 18.0006 11.9421 18.0006 12.5696C18.0006 13.1988 17.5507 13.7131 17.0003 13.7131Z" fill="#5B5B5B"/>
</svg>
