<svg width="20" height="20" viewBox="0 0 20 20" fill="none" xmlns="http://www.w3.org/2000/svg">
<path d="M0.909525 4.5449C1.4086 4.5449 1.81769 4.13582 1.81769 3.63674V2.72721C1.81905 2.22677 2.22813 1.81769 2.72721 1.81769H3.63674C4.13581 1.81769 4.5449 1.4086 4.5449 0.909525C4.5449 0.409082 4.13581 0 3.63674 0H2.72721C1.2177 0 0 1.2177 0 2.72721V3.63674C0 4.13582 0.409081 4.5449 0.909525 4.5449ZM3.63674 18.181H2.72721C2.48645 18.1802 2.25573 18.0844 2.08535 17.9142C1.91498 17.7441 1.81876 17.5136 1.81769 17.2728V16.3633C1.81769 15.8628 1.4086 15.4551 0.909525 15.4551C0.409081 15.4551 0 15.8642 0 16.3633V17.2728C0 18.7823 1.2177 20 2.72721 20H3.63674C4.13581 20 4.5449 19.5909 4.5449 19.0905C4.5449 18.59 4.13581 18.1823 3.63674 18.1823V18.181ZM17.2728 0H16.3646C15.8642 0 15.4551 0.409082 15.4551 0.909525C15.4551 1.4086 15.8642 1.81769 16.3646 1.81769H17.2728C17.7732 1.81769 18.1823 2.22677 18.1823 2.72721V3.63674C18.1823 4.13582 18.5914 4.5449 19.0918 4.5449C19.5909 4.5449 20 4.13582 20 3.63674V2.72721C20 1.2177 18.7823 0 17.2728 0ZM19.0918 15.4537C18.5914 15.4537 18.1823 15.8628 18.1823 16.3633V17.2728C18.1823 17.7732 17.7732 18.1823 17.2728 18.1823H16.3646C15.8642 18.1823 15.4551 18.5914 15.4551 19.0905C15.4551 19.5909 15.8642 20 16.3646 20H17.2728C18.7823 20 20 18.7823 20 17.2728V16.3633C20 15.8628 19.5909 15.4551 19.0918 15.4551V15.4537ZM16.3619 12.6093V7.39074C16.3619 6.73621 16.0169 6.13622 15.4537 5.8185L10.9075 3.20038C10.6319 3.03868 10.3182 2.95343 9.99864 2.95343C9.67911 2.95343 9.36538 3.03868 9.08979 3.20038L4.5449 5.8076C3.98036 6.13486 3.63537 6.73485 3.63537 7.38938V12.6079C3.63537 13.2624 3.98036 13.8624 4.5449 14.1801L9.08979 16.7983C9.36538 16.96 9.67911 17.0452 9.99864 17.0452C10.3182 17.0452 10.6319 16.96 10.9075 16.7983L15.4551 14.1815C15.7322 14.0234 15.9624 13.7945 16.122 13.5183C16.2815 13.242 16.3648 12.9283 16.3633 12.6093H16.3619ZM9.08979 14.6997L5.45306 12.6093V8.39981L9.08979 10.5175V14.6997ZM9.99932 8.94525L6.3994 6.8453L9.99932 4.77262L13.5992 6.8453L9.99932 8.94525ZM14.5442 12.6093L10.9075 14.6997V10.5175L14.5442 8.39981V12.6093Z" fill="#5B5B5B"/>
</svg>
